<?xml version="1.0" encoding="UTF-8" standalone="no"?>
<!-- Created with Inkscape (http://www.inkscape.org/) -->
<svg xmlns:inkscape="http://www.inkscape.org/namespaces/inkscape" xmlns:sodipodi="http://sodipodi.sourceforge.net/DTD/sodipodi-0.dtd" xmlns="http://www.w3.org/2000/svg" xmlns:svg="http://www.w3.org/2000/svg" version="1.1" id="svg2" xml:space="preserve" width="453.54248" height="240.12598" viewBox="0 0 453.54247 240.12598" sodipodi:docname="37d57bc3214d91dbd2900de14d3d2180.ai">
  <metadata>
    <meta name="Producer" content="Online-Convert"/>
  </metadata>
  <defs id="defs6">
    <clipPath clipPathUnits="userSpaceOnUse" id="clipPath16">
      <path d="M 0,595.275 H 841.89 V 0 H 0 Z" id="path14"/>
    </clipPath>
  </defs>
  <sodipodi:namedview id="namedview4" pagecolor="#ffffff" bordercolor="#666666" borderopacity="1.0" inkscape:pageshadow="2" inkscape:pageopacity="0.0" inkscape:pagecheckerboard="0"/>
  <g id="g8" inkscape:groupmode="layer" inkscape:label="37d57bc3214d91dbd2900de14d3d2180" transform="matrix(1.3333333,0,0,-1.3333333,-335.99295,510.89839)">
    <g id="g10">
      <g id="g12" clip-path="url(#clipPath16)">
        <g id="g18" transform="translate(390.6963,332.707)">
          <path d="m 0,0 c 0,0 0.889,4.116 0.069,8.147 -0.077,0.545 -0.114,0.757 -0.184,1.164 -0.11,0.636 -0.185,0.922 -0.185,0.922 -0.17,0.752 -0.357,1.518 -0.593,2.289 -0.811,2.711 -2.031,5.369 -3.35,7.446 -5.76,-0.78 -11.741,-1.515 -17.708,-2.288 -13.08,-1.775 -24.901,-2.027 -28.907,2.025 -3.78,3.826 -1.126,16.527 1.545,25.839 -1.779,1.383 -4.023,2.785 -6.64,3.596 0,0 -0.252,0.082 -0.799,0.237 -0.548,0.155 -1.215,0.33 -1.213,0.333 -0.233,0.062 -0.471,0.117 -0.718,0.172 -3.415,0.736 -6.67,0.744 -9.427,0.181 -0.168,-0.033 -0.342,-0.061 -0.505,-0.099 v -0.002 c -0.002,0 -0.004,0 -0.006,-0.001 -0.913,-2.233 -2.871,-7.399 -5.626,-12.161 -2.757,-4.761 -6.312,-9.116 -10.416,-9.729 -7.056,-1.054 -16.368,9.863 -25.665,20.895 l -10e-4,-10e-4 c -0.006,0.007 -0.011,0.013 -0.017,0.019 -2.292,-0.474 -5.377,-1.934 -7.332,-3.289 -0.141,-0.088 -0.279,-0.175 -0.41,-0.26 0,0 -0.499,-0.312 -1.198,-0.843 -0.179,-0.136 -0.414,-0.328 -0.414,-0.328 -1.238,-0.905 -2.302,-2.17 -3.799,-4.045 -1.342,-1.679 -2.289,-3.464 -2.397,-3.972 h -0.005 c 6.866,-7.912 9.709,-10.49 14.767,-20.665 3.927,-7.901 -0.378,-10.19 -5.737,-12.348 -4.53,-1.842 -20.951,-4.483 -20.951,-4.483 l -0.008,-10e-4 c -0.851,-2.517 -1.07,-5.143 -0.695,-8.377 0,0 0.082,-0.762 0.152,-1.162 0.127,-0.735 0.167,-0.851 0.167,-0.851 0.819,-5.083 2.903,-8.398 3.788,-9.585 6.58,0.757 11.58,1.054 15.298,1.054 14.069,0.061 14.441,-4.005 13.702,-15.07 -0.613,-9.18 -6.812,-25.239 -8.436,-28.629 0,0 1.186,-1.141 2.686,-2.074 1.951,-1.213 4.041,-2.045 4.261,-2.125 0.01,-0.004 0.017,-0.006 0.017,-0.006 0.536,-0.191 0.536,-0.189 0.845,-0.29 0.311,-0.103 0.924,-0.286 0.924,-0.286 1.994,-0.695 5.857,-1.473 10.25,-1.274 0.329,0.834 14.269,36.713 23.633,38.193 7.22,1.14 18.471,-13.89 20.582,-16.843 2.376,0.118 5.76,0.781 8.406,1.9 0,0 0.417,0.186 0.994,0.465 0.578,0.281 1.027,0.524 1.027,0.524 0,0 4.457,2.72 7.112,7.08 l 0.157,0.253 c 0.331,-0.408 -11.862,15.756 -10.657,22.856 C -42.289,-7.679 -10.406,-1.7 0,0" style="fill:#ffffff;fill-opacity:1;fill-rule:nonzero;stroke:none" id="path20"/>
        </g>
        <g id="g22" transform="translate(334.0654,380.0488)">
          <path d="m 0,0 c -4.332,-11.966 -6.584,-19.331 -7.807,-24.889 -0.77,-3.611 -1.085,-6.267 -0.983,-8.548 0.186,-6.54 4.116,-8.418 7.483,-9.139 3.369,-0.721 7.189,-0.702 11.752,-0.5 4.531,0.218 9.639,0.733 14.825,1.36 7.361,0.903 21.867,3.217 28.921,4.314 -10.515,-1.409 -22.574,-2.863 -32.716,-3.002 -4.391,-0.061 -8.422,0.125 -11.998,0.733 -3.565,0.64 -6.752,1.531 -9.485,3.969 -1.881,1.728 -3.062,3.906 -3.758,6.085 -0.697,2.203 -0.962,4.46 -0.994,6.757 -0.062,5.811 1.346,11.937 2.906,17.268 0.535,1.779 1.172,3.678 1.868,5.595 0.014,0.041 0.246,0.674 0.261,0.716 z" style="fill:#a2d39b;fill-opacity:1;fill-rule:nonzero;stroke:none" id="path24"/>
        </g>
        <g id="g26" transform="translate(329.3057,357.1885)">
          <path d="m 0,0 c 0.032,-2.297 0.297,-4.554 0.994,-6.757 0.695,-2.179 1.877,-4.356 3.758,-6.085 2.732,-2.437 5.92,-3.329 9.484,-3.969 3.576,-0.608 7.608,-0.793 11.998,-0.733 10.143,0.14 22.201,1.594 32.717,3.002 0.721,0.092 1.439,0.194 2.14,0.294 -0.17,0.752 -0.358,1.518 -0.593,2.289 -0.812,2.711 -2.031,5.368 -3.351,7.445 C 51.388,-5.293 45.406,-6.028 39.439,-6.802 26.359,-8.576 14.539,-8.828 10.532,-4.776 6.753,-0.95 9.406,11.751 12.078,21.063 10.299,22.445 8.055,23.848 5.437,24.658 5.367,24.457 5.281,24.248 5.203,24.031 4.471,22.07 3.656,19.766 2.906,17.269 1.346,11.938 -0.062,5.812 0,0" style="fill:#39b54a;fill-opacity:1;fill-rule:nonzero;stroke:none" id="path28"/>
        </g>
        <g id="g30" transform="translate(285.5752,264.0557)">
          <path d="m 0,0 c 3.734,9.357 10.014,24.199 16.717,33.981 2.405,3.486 4.797,6.469 7.454,8.703 1.476,1.217 3.062,2.281 5.123,2.857 1.189,0.346 2.391,0.503 3.546,0.503 3.363,-0.017 5.827,-1.031 8.58,-2.531 2.75,-1.515 5.31,-3.468 7.687,-5.554 4.75,-4.18 13.764,-15.982 13.764,-15.982 h 0.008 c 0,0 -8.979,12.333 -14.391,18.175 -2.725,2.924 -5.561,6.032 -8.442,8.235 -1.456,1.093 -2.909,2.062 -4.47,2.828 -1.561,0.72 -3.266,1.314 -5.29,1.326 -0.663,0 -1.383,-0.061 -2.14,-0.264 C 25.499,51.512 24.255,50.09 22.905,48.639 20.664,46.027 18.6,42.216 16.39,38.027 10.28,26.371 3.643,9.471 0.001,0.002 Z" style="fill:#f49ac1;fill-opacity:1;fill-rule:nonzero;stroke:none" id="path32"/>
        </g>
        <g id="g34" transform="translate(340.04,284.1318)">
          <path d="m 0,0 c 2.376,0.118 5.76,0.781 8.406,1.9 0,0 -9.013,11.803 -13.763,15.983 -2.377,2.086 -4.938,4.039 -7.688,5.554 -2.753,1.5 -5.217,2.514 -8.58,2.531 -1.155,0 -2.356,-0.157 -3.546,-0.503 -2.06,-0.576 -3.646,-1.64 -5.123,-2.857 -2.657,-2.234 -5.049,-5.217 -7.454,-8.703 -6.703,-9.782 -12.982,-24.624 -16.717,-33.981 1.994,-0.694 5.858,-1.473 10.25,-1.274 0.329,0.834 14.27,36.713 23.633,38.193 C -13.361,17.983 -2.11,2.953 0,0" style="fill:#ec008c;fill-opacity:1;fill-rule:nonzero;stroke:none" id="path36"/>
        </g>
        <g id="g38" transform="translate(359.8779,334.8467)">
          <path d="M 0,0 C 15.396,3.892 27.129,5.378 30.832,6 25.939,5.41 7.58,2.628 -8.98,-0.657 c -16.559,-3.296 -24.723,-6.685 -20.934,-17.296 3.547,-9.888 18.311,-27.311 20.281,-29.599 -1.363,1.788 -8.658,11.585 -11.164,17.531 C -29.562,-11.451 -15.619,-3.936 0,0" style="fill:#74bde9;fill-opacity:1;fill-rule:nonzero;stroke:none" id="path40"/>
        </g>
        <g id="g42" transform="translate(390.6963,332.707)">
          <path d="M 0,0 C 0,0 0.889,4.116 0.069,8.147 0.047,8.144 0.032,8.142 0.014,8.14 c -3.703,-0.622 -15.436,-2.109 -30.832,-6 -15.62,-3.937 -29.563,-11.452 -20.797,-30.021 2.506,-5.946 9.801,-15.743 11.164,-17.531 0.131,-0.156 0.222,-0.274 0.222,-0.274 0,0 4.457,2.72 7.112,7.08 l 0.157,0.253 c 0.331,-0.408 -11.862,15.756 -10.657,22.856 C -42.289,-7.679 -10.406,-1.7 0,0" style="fill:#0094d9;fill-opacity:1;fill-rule:nonzero;stroke:none" id="path44"/>
        </g>
        <g id="g46" transform="translate(274.7402,376.0635)">
          <path d="m 0,0 c 0.039,-0.049 0.16,-0.202 0.208,-0.262 2.704,-3.406 7.266,-8.955 13.123,-15.493 3.562,-3.951 7.047,-7.561 10.422,-10.328 1.703,-1.374 3.365,-2.562 5.132,-3.468 4.458,-2.289 8.428,-2.297 12.585,1.076 2.609,2.174 4.438,4.978 6.155,8.143 2.531,4.749 4.655,10.422 6.626,15.969 1.141,3.265 2.232,6.482 3.266,9.39 -1.375,-3.36 -2.812,-6.936 -4.471,-10.422 -2.481,-5.203 -5.389,-10.251 -9.74,-14.031 -2.891,-2.517 -6.571,-4.391 -10.868,-4.828 -0.372,-0.031 -0.748,-0.047 -1.124,-0.047 -3.936,0.047 -7.319,1.672 -10.593,3.781 -3.267,2.157 -6.467,4.983 -9.657,8.17 -3.557,3.568 -7.363,7.93 -10.848,12.094 -0.029,0.035 -0.063,0.071 -0.092,0.107 z" style="fill:#e9ec9a;fill-opacity:1;fill-rule:nonzero;stroke:none" id="path48"/>
        </g>
        <g id="g50" transform="translate(295.4609,355.5439)">
          <path d="m 0,0 c 3.274,-2.109 6.657,-3.734 10.594,-3.781 0.376,0 0.752,0.015 1.123,0.047 4.298,0.436 7.977,2.31 10.868,4.828 4.352,3.779 7.26,8.828 9.74,14.031 1.659,3.485 3.178,7.029 4.471,10.422 0.221,0.58 0.282,0.767 0.474,1.326 -0.233,0.063 -0.47,0.117 -0.717,0.172 -3.625,0.782 -7.078,0.751 -9.939,0.079 C 24.786,22.656 18.78,6.45 10.571,5.225 3.516,4.17 -5.813,15.117 -15.11,26.147 c -2.343,-0.485 -5.519,-2 -7.465,-3.379 0.136,-0.153 0.06,-0.081 0.202,-0.245 4.037,-4.93 8.368,-9.993 12.717,-14.353 C -6.467,4.983 -3.267,2.156 0,0" style="fill:#d7df23;fill-opacity:1;fill-rule:nonzero;stroke:none" id="path52"/>
        </g>
        <g id="g54" transform="translate(296.8389,342.8008)">
          <path d="m 0,0 c -1.279,2.952 -3.029,5.702 -4.826,8.374 -1.689,2.518 -3.485,4.969 -5.33,7.374 -3.952,5.157 -8.137,10.143 -12.483,14.971 -1.013,1.108 -2.045,2.231 -3.078,3.325 -0.028,0.03 -0.044,0.047 -0.062,0.062 4.462,-4.9 11.865,-13.457 17.206,-24.895 1.504,-3.222 5.423,-12.575 -1.469,-18.673 -7.114,-6.295 -21.281,-8.311 -34.61,-10.257 6.264,0.689 12.53,1.44 18.763,2.36 4.485,0.657 8.97,1.377 13.375,2.388 3.672,0.861 7.75,1.863 10.719,4.282 1.562,1.266 2.719,3.049 2.93,5.079 C 1.329,-3.64 0.721,-1.783 0,0" style="fill:#fdc689;fill-opacity:1;fill-rule:nonzero;stroke:none" id="path56"/>
        </g>
        <g id="g58" transform="translate(264.7949,368.9541)">
          <path d="m 0,0 c 6.866,-7.912 9.709,-10.49 14.768,-20.665 3.926,-7.901 -0.378,-10.19 -5.738,-12.348 -4.53,-1.842 -20.951,-4.483 -20.951,-4.483 l -0.008,-10e-4 c -0.85,-2.517 -1.07,-5.143 -0.695,-8.377 l 0.016,0.002 c 13.329,1.945 27.496,3.962 34.61,10.257 6.892,6.097 2.973,15.451 1.469,18.673 C 18.13,-5.504 10.727,3.053 6.265,7.953 6.235,7.985 6.201,8.017 6.201,8.017 4.964,7.112 3.899,5.847 2.402,3.972 1.061,2.293 0.113,0.508 0.005,0" style="fill:#f7931e;fill-opacity:1;fill-rule:nonzero;stroke:none" id="path60"/>
        </g>
        <g id="g62" transform="translate(296.542,319.9561)">
          <path d="M 0,0 C -2,2.017 -4.797,2.923 -7.529,3.377 -10.186,3.8 -12.903,3.846 -15.59,3.814 -25.099,3.657 -34.57,2.4 -43.992,1.121 l -0.06,-0.01 c 8.114,1.009 14.305,1.438 19.086,1.438 5.103,-0.009 8.704,-0.469 11.609,-1.451 0.208,-0.067 0.41,-0.136 0.609,-0.207 0.11,-0.039 0.217,-0.08 0.324,-0.12 0.054,-0.02 0.108,-0.04 0.159,-0.061 6.971,-2.686 8.863,-8.345 8.97,-15.224 -0.03,-6.656 -1.798,-14.999 -4.062,-23.421 -1.658,-6.123 -3.598,-12.229 -5.378,-17.389 2.391,6.268 4.891,12.501 7.157,18.811 2.401,6.72 4.734,13.451 6.408,20.405 0.726,3.017 1.352,6.094 1.397,9.204 C 2.268,-4.445 1.768,-1.828 0,0" style="fill:#f69679;fill-opacity:1;fill-rule:nonzero;stroke:none" id="path64"/>
        </g>
        <g id="g66" transform="translate(293.2471,305.4424)">
          <path d="m 0,0 c -0.108,6.879 -1.999,12.538 -8.97,15.224 -0.053,0.02 -0.105,0.041 -0.159,0.061 -0.107,0.04 -0.214,0.08 -0.324,0.119 -0.199,0.071 -0.402,0.141 -0.61,0.207 -2.904,0.983 -6.505,1.443 -11.608,1.451 -4.781,0 -10.972,-0.428 -19.086,-1.437 0.819,-5.083 2.903,-8.398 3.788,-9.585 6.58,0.757 11.58,1.054 15.298,1.054 14.069,0.06 14.441,-4.005 13.702,-15.071 -0.613,-9.179 -6.812,-25.238 -8.436,-28.628 0,0 1.186,-1.141 2.686,-2.075 1.951,-1.213 4.041,-2.045 4.261,-2.125 0.01,-0.004 0.017,-0.006 0.017,-0.006 1.781,5.161 3.721,11.267 5.379,17.39 C -1.798,-14.999 -0.03,-6.656 0,0" style="fill:#ed1c24;fill-opacity:1;fill-rule:nonzero;stroke:none" id="path68"/>
        </g>
        <g id="g70" transform="translate(419.8952,255.7947)">
          <path d="m 0,0 -0.007,-8.365 h -4.868 l 0.015,9.294 c 0.018,0.909 -0.031,1.719 -0.17,2.394 -0.266,1.32 -1.031,2.133 -2.813,2.133 -0.733,0 -1.514,-0.136 -2.329,-0.446 l -0.014,-13.375 h -4.891 V 7.673 c 2.328,0.787 4.827,1.476 7.717,1.476 4.065,0 6.455,-2.397 7.127,-5.7 C -0.08,2.666 -0.007,1.494 0,0" style="fill:#0094d9;fill-opacity:1;fill-rule:nonzero;stroke:none" id="path72"/>
        </g>
        <g id="g74" transform="translate(540.0375,255.7947)">
          <path d="m 0,0 -0.006,-8.365 h -4.876 l 0.015,9.294 c 0.014,0.909 -0.015,1.719 -0.157,2.394 -0.267,1.32 -1.046,2.133 -2.811,2.133 -0.75,0 -1.527,-0.136 -2.337,-0.446 l -0.024,-13.375 h -4.891 l 0.01,16.038 c 2.319,0.787 4.827,1.476 7.718,1.476 4.054,0 6.459,-2.397 7.115,-5.7 C -0.086,2.666 -0.006,1.494 0,0" style="fill:#0094d9;fill-opacity:1;fill-rule:nonzero;stroke:none" id="path76"/>
        </g>
        <g id="g78" transform="translate(395.8427,261.3013)">
          <path d="m 0,0 c -2.094,0 -4.321,-2.655 -3.602,-6.921 0.437,-2.592 1.909,-3.436 2.861,-3.436 0.782,0 1.435,0.265 1.997,0.766 L 1.242,-0.075 C 0.914,-0.043 0.415,0 0,0 M 6.179,-13.871 H 2.476 c 0,0 -0.312,0.517 -0.484,1.171 -0.36,-0.283 -1.483,-1.382 -3.719,-1.382 -3.078,0 -5.959,2.851 -6.748,6.724 -1.472,7.289 3.813,10.97 8.89,10.97 2.031,0 4.452,-0.516 5.749,-0.893 z" style="fill:#0094d9;fill-opacity:1;fill-rule:nonzero;stroke:none" id="path80"/>
        </g>
        <g id="g82" transform="translate(463.94,261.3013)">
          <path d="m 0,0 c -2.093,0 -4.325,-2.655 -3.593,-6.921 0.422,-2.592 1.905,-3.436 2.856,-3.436 0.767,0 1.44,0.265 2.004,0.766 L 1.242,-0.075 C 0.907,-0.043 0.423,0 0,0 M 6.172,-13.871 H 2.469 c 0,0 -0.313,0.517 -0.466,1.171 -0.377,-0.283 -1.503,-1.382 -3.721,-1.382 -3.087,0 -5.972,2.851 -6.757,6.724 -1.475,7.289 3.803,10.97 8.898,10.97 2.028,0 4.454,-0.561 5.749,-0.938 z" style="fill:#0094d9;fill-opacity:1;fill-rule:nonzero;stroke:none" id="path84"/>
        </g>
        <g id="g86" transform="translate(550.7625,261.3013)">
          <path d="m 0,0 c -2.093,0 -4.313,-2.655 -3.594,-6.921 0.441,-2.592 1.908,-3.436 2.876,-3.436 0.765,0 1.423,0.265 1.986,0.766 L 1.253,-0.075 C 0.921,-0.043 0.423,0 0,0 m 6.179,-13.871 h -3.71 c 0,0 -0.296,0.517 -0.47,1.171 -0.375,-0.283 -1.492,-1.382 -3.716,-1.382 -3.086,0 -5.97,2.851 -6.75,6.724 -1.483,7.289 3.802,10.97 8.89,10.97 2.014,0 4.451,-0.516 5.75,-0.893 z" style="fill:#0094d9;fill-opacity:1;fill-rule:nonzero;stroke:none" id="path88"/>
        </g>
        <g id="g90" transform="translate(498.1878,255.7736)">
          <path d="m 0,0 0.015,-8.344 h -4.889 v 9.265 c 0.013,0.921 0,1.748 -0.124,2.434 -0.267,1.253 -1.017,2.129 -2.852,2.129 -0.743,0 -2.049,-0.236 -2.853,-0.71 0.05,-0.105 0.557,-1.704 0.557,-3.681 l 0.014,-9.437 h -4.929 l 0.006,9.294 c 0.011,0.955 -0.036,1.789 -0.179,2.469 -0.251,1.283 -1.032,2.065 -2.766,2.065 -0.765,0 -1.515,-0.143 -2.327,-0.448 l -0.014,-13.38 h -4.893 v 16.06 c 1.977,0.72 4.893,1.454 7.719,1.454 1.828,0 3.314,-0.469 4.453,-1.31 1.441,0.708 3.407,1.31 5.703,1.31 4.046,0 6.437,-2.397 7.109,-5.7 C -0.094,2.652 0.015,1.468 0,0" style="fill:#0094d9;fill-opacity:1;fill-rule:nonzero;stroke:none" id="path92"/>
        </g>
        <g id="g94" transform="translate(510.3107,254.3802)">
          <path d="M 0,0 C -0.703,-4.702 -4.466,-3.684 -4.911,-3.342 V 6.846 c 0.336,0.047 0.889,0.086 1.304,0.086 C -1.513,6.932 0.657,4.297 0,0 m -4.014,10.533 c -2.033,0 -4.453,-0.375 -5.748,-0.735 v -24.732 h 4.891 l -0.04,8.313 c 0.508,-0.189 1.882,-0.54 2.741,-0.54 3.774,0 6.205,2.716 6.911,6.241 1.62,8.068 -3.834,11.453 -8.755,11.453" style="fill:#0094d9;fill-opacity:1;fill-rule:nonzero;stroke:none" id="path96"/>
        </g>
        <g id="g98" transform="translate(377.6952,252.9306)">
          <path d="m 0,0 c -0.455,2.188 -2.078,3.577 -3.858,4.553 -1.875,1.038 -3.076,1.6 -3.235,2.338 -0.123,0.653 0.201,1.81 1.625,1.842 1.32,0.031 2.232,-0.327 3.953,-1.282 v 3.608 c -1.908,0.723 -3.039,0.954 -4.515,0.954 -3.266,0 -5.983,-1.811 -5.267,-5.376 0.407,-2.015 1.562,-3.124 3.048,-4.107 1.64,-1.044 3.477,-1.969 3.72,-3.189 0.186,-0.936 -0.371,-2.202 -2.519,-2.202 -1.31,0 -2.732,0.781 -3.922,1.408 v -3.752 c 1.235,-0.467 2.658,-0.801 4.392,-0.801 4.312,0 7.423,1.817 6.578,6.006" style="fill:#0094d9;fill-opacity:1;fill-rule:nonzero;stroke:none" id="path100"/>
        </g>
        <g id="g102" transform="translate(342.1664,264.7009)">
          <path d="m 0,0 c -4.032,0 -6.344,-0.806 -8.312,-1.475 l 0.047,-15.796 h 4.889 l -0.029,13.232 c 0.81,0.312 2.177,0.44 2.92,0.44 0.266,0 0.499,-0.031 0.735,-0.063 v 3.656 C 0.156,-0.006 0.077,0 0,0" style="fill:#0094d9;fill-opacity:1;fill-rule:nonzero;stroke:none" id="path104"/>
        </g>
        <g id="g106" transform="translate(349.1497,247.4299)">
          <path d="m 0,0 h -4.781 l 0.032,17.217 c 0,0 0.622,0.189 2.374,0.203 1.985,0.021 2.405,-0.203 2.405,-0.203 z" style="fill:#0094d9;fill-opacity:1;fill-rule:nonzero;stroke:none" id="path108"/>
        </g>
        <g id="g110" transform="translate(386.3482,251.2268)">
          <path d="m 0,0 c -0.152,-0.032 -0.341,-0.032 -0.575,-0.032 -0.994,0 -1.468,0.467 -1.468,2.094 v 16.859 c 0,0 -0.44,0.234 -2.453,0.219 -1.797,-0.018 -2.423,-0.219 -2.423,-0.219 H -6.934 V 1.851 c 0,-5.306 3.048,-6.18 5.108,-6.18 1.235,0 2.093,0.174 2.86,0.408 z" style="fill:#0094d9;fill-opacity:1;fill-rule:nonzero;stroke:none" id="path112"/>
        </g>
        <g id="g114" transform="translate(522.0915,247.4299)">
          <path d="m 0,0 h -4.781 l 0.033,16.923 c 0,0 0.641,0.342 2.381,0.348 1.978,0.022 2.4,-0.348 2.4,-0.348 z" style="fill:#0094d9;fill-opacity:1;fill-rule:nonzero;stroke:none" id="path116"/>
        </g>
        <g id="g118" transform="translate(453.72,251.5876)">
          <path d="m 0,0 c -0.951,-0.298 -2.246,-0.674 -3.451,-0.674 -3.389,0 -4.657,3.375 -4.657,7.64 0,4.017 0.985,7.689 4.468,7.689 1.033,0 2.377,-0.205 3.484,-1.269 l 2.485,3.284 c -1.306,1.307 -3.094,2.06 -5.969,2.06 -5.383,0 -9.78,-3.507 -9.78,-11.764 0,-8.434 4.016,-11.78 9.866,-11.78 1.619,0 4.228,0.532 5.477,1.031 z" style="fill:#0094d9;fill-opacity:1;fill-rule:nonzero;stroke:none" id="path120"/>
        </g>
        <g id="g122" transform="translate(429.9862,250.7591)">
          <path d="m 0,0 c -0.997,0 -2.405,0.844 -2.855,3.468 -0.454,2.702 0.188,5.446 1.888,6.703 1.063,0.724 2.267,0.513 3.174,0.247 L 2.222,0.888 C 1.596,0.311 0.785,0 0,0 M 4.614,19.608 C 2.831,19.59 2.207,19.389 2.207,19.389 l 0.015,-5.362 c -0.39,0.034 -0.922,0.157 -1.329,0.157 -4.998,0 -10.187,-3.201 -8.563,-11.202 0.799,-3.919 3.658,-6.757 7.078,-6.757 1.22,0 2.469,0.586 3.531,1.398 l 0.47,-0.952 h 3.734 v 22.718 c 0,0 -0.508,0.234 -2.529,0.219" style="fill:#0094d9;fill-opacity:1;fill-rule:nonzero;stroke:none" id="path124"/>
        </g>
        <g id="g126" transform="translate(358.7179,261.6024)">
          <path d="M 0,0 C 0.025,0.007 0.04,0 0.04,0 H 0.059 C 1.322,0.099 2.371,-1.376 2.446,-3.547 L 2.423,-4.563 h -5.334 c 0,0 -0.394,4.374 2.911,4.563 m 1.621,-7.495 c 0.951,0 2.295,0.026 3.14,0.085 l 1.083,0.05 c 0,0.062 0.345,1.531 0.314,3.196 C 6.072,1.67 3.259,3.247 -0.223,3.341 h -0.018 -0.006 0.006 -0.031 C -4.568,3.279 -7.707,0.694 -7.692,-5.596 v -0.077 c 0.17,-6.5 3.062,-8.953 7.672,-9.043 0.045,0 0.045,-0.019 0.045,-0.019 1.095,0 3.234,0.189 5.354,1.249 v 3.594 c -1.981,-0.888 -2.885,-1.357 -4.916,-1.249 -3.843,0.201 -3.466,3.646 -3.466,3.646 z" style="fill:#0094d9;fill-opacity:1;fill-rule:nonzero;stroke:none" id="path128"/>
        </g>
        <g id="g130" transform="translate(324.6669,266.1645)">
          <path d="m 0,0 c 0.718,0.594 2.407,0.828 4.017,0.828 3.701,0 5.108,-0.8 5.108,-0.8 l 1.077,3.674 c 0,0 -2.796,1.45 -8.451,0.945 C -3.546,4.171 -5.186,2.769 -5.186,2.769 v -21.628 h 5.172 L 0,-9.206 h 4.319 3.149 v 3.999 H 4.319 0 v 3.196 z" style="fill:#0094d9;fill-opacity:1;fill-rule:nonzero;stroke:none" id="path132"/>
        </g>
        <g id="g134" transform="translate(580.1682,268.0056)">
          <path d="m 0,0 c 0,-1.403 -1.141,-2.527 -2.531,-2.527 -1.408,0 -2.532,1.124 -2.532,2.527 0,1.392 1.124,2.532 2.532,2.532 C -1.141,2.532 0,1.392 0,0" style="fill:#0094d9;fill-opacity:1;fill-rule:nonzero;stroke:none" id="path136"/>
        </g>
        <g id="g138" transform="translate(592.1516,260.8361)">
          <path d="M 0,0 C 0,1.608 -0.625,2.702 -1.537,3.311 -2.452,3.903 -3.579,4.035 -4.624,4.035 -5.038,4.035 -5.436,4.014 -5.812,3.984 -7.875,3.819 -9.718,3.342 -10.563,3 V -8.534 h 3.75 v 8.656 c 0.735,0.144 1.327,0.219 1.767,0.219 0.514,0 0.827,-0.1 0.955,-0.219 0.138,-0.108 0.216,-0.263 0.232,-0.669 0,-0.354 -0.094,-0.859 -0.292,-1.502 -0.27,-0.889 -0.614,-1.874 -0.958,-2.795 v -3.69 h 2.593 c 0.03,0.096 1.921,4.971 2.234,6.393 C -0.096,-1.343 0,-0.635 0,0" style="fill:#0094d9;fill-opacity:1;fill-rule:nonzero;stroke:none" id="path140"/>
        </g>
        <g id="g142" transform="translate(566.3248,247.4451)">
          <path d="M 0,0 H 22.61 V 0.469 3.281 H 0 Z" style="fill:#0094d9;fill-opacity:1;fill-rule:nonzero;stroke:none" id="path144"/>
        </g>
        <g id="g146" transform="translate(579.6666,263.7633)">
          <path d="M 0,0 C 0,0 -0.469,0.131 -2.03,0.131 -3.22,0.131 -4.077,0 -4.077,0 V -11.461 H 0 Z" style="fill:#0094d9;fill-opacity:1;fill-rule:nonzero;stroke:none" id="path148"/>
        </g>
        <g id="g150" transform="translate(568.2314,255.9916)">
          <path d="m 0,0 c -0.346,0.921 -0.686,1.907 -0.968,2.796 -0.189,0.642 -0.282,1.147 -0.282,1.501 0.007,0.407 0.093,0.562 0.218,0.669 0.14,0.12 0.453,0.22 0.969,0.22 0.439,0 1.032,-0.075 1.749,-0.22 V -3.689 H 5.454 V 7.844 c -0.845,0.343 -2.687,0.82 -4.752,0.985 -0.375,0.029 -0.78,0.05 -1.185,0.05 -1.047,0 -2.174,-0.131 -3.096,-0.724 -0.92,-0.608 -1.532,-1.703 -1.532,-3.311 0,-0.635 0.094,-1.343 0.282,-2.141 0.314,-1.421 2.202,-6.296 2.237,-6.392 H 0 Z" style="fill:#0094d9;fill-opacity:1;fill-rule:nonzero;stroke:none" id="path152"/>
        </g>
        <g id="g154" transform="translate(387.5268,225.3562)">
          <path d="m 0,0 c 0.566,-0.081 0.862,-0.553 0.741,-1.213 -0.121,-0.66 -0.292,-3.981 0.477,-6.015 1.199,2.668 2.42,5.004 3.053,5.907 0.628,0.895 1.348,1.807 2.332,1.604 1.001,-0.206 1.388,-1.038 1.564,-2.062 0.174,-1.024 0.469,-6.047 0.512,-7.305 0.026,-0.794 0.148,-1.158 0.593,-1.589 0.232,-0.226 0.304,-0.728 -0.122,-1.011 -0.499,-0.33 -1.267,-0.039 -1.576,0.512 -0.31,0.553 -0.408,1.079 -0.456,1.954 -0.08,1.463 -0.177,4.421 -0.635,6.213 C 6.348,-2.479 6.136,-2.228 5.931,-2.21 5.721,-2.194 5.495,-2.483 5.201,-2.938 4.366,-4.232 3.1,-6.886 2.655,-7.978 2.334,-8.764 2.008,-9.528 1.132,-9.528 c -0.876,0 -1.379,0.671 -1.698,1.739 -0.593,1.982 -1.092,4.366 -0.607,6.94 C -1.037,-0.128 -0.474,0.068 0,0" style="fill:#0094d9;fill-opacity:1;fill-rule:nonzero;stroke:none" id="path156"/>
        </g>
        <g id="g158" transform="translate(398.256,221.5694)">
          <path d="M 0,0 C -0.861,-2.753 -0.611,-5.824 1.966,-6.698 4.743,-7.64 7.222,-5.634 8.179,-3.073 9.413,0.229 8.044,2.735 5.914,3.248 5.291,3.398 5.039,2.945 4.974,2.684 4.909,2.422 5.102,2.147 5.615,1.952 6.543,1.599 7.471,0.187 6.608,-2.401 5.746,-4.989 3.825,-5.804 2.648,-5.347 1.516,-4.906 1.146,-2.897 1.784,-0.806 2.549,1.696 3.562,2.762 4.542,3.103 5.343,3.379 5.596,4.409 4.849,4.582 4.405,4.685 3.779,4.611 3.11,4.205 2.013,3.539 0.721,2.31 0,0" style="fill:#0094d9;fill-opacity:1;fill-rule:nonzero;stroke:none" id="path160"/>
        </g>
        <g id="g162" transform="translate(408.4258,225.9185)">
          <path d="m 0,0 c -1.113,-0.089 -0.937,-1.021 -0.753,-1.77 0.682,-2.772 2.014,-7.373 4.373,-7.769 1.609,-0.268 2.835,2.939 3.682,4.902 0.1,-1.828 0.311,-4.036 0.528,-5.166 0.084,-0.44 0.226,-0.835 0.589,-0.955 0.47,-0.158 1.241,-0.224 1.058,0.853 -0.182,1.079 -0.448,3.235 -0.488,4.638 -0.024,0.83 0.035,2.177 0.107,3.598 0.042,0.83 -0.112,1.532 -0.737,1.588 C 7.542,-0.009 7.281,-0.772 7.077,-1.607 6.323,-3.823 4.861,-6.182 4.332,-6.935 3.554,-8.041 3.329,-7.867 2.847,-6.813 2.522,-6.102 1.421,-3.141 1.281,-1.404 1.179,-0.142 0.508,0.041 0,0" style="fill:#0094d9;fill-opacity:1;fill-rule:nonzero;stroke:none" id="path164"/>
        </g>
        <g id="g166" transform="translate(420.9297,226.3968)">
          <path d="m 0,0 c -0.669,0 -0.816,-0.423 -0.734,-1.144 0.081,-0.722 0.653,-5.188 0.789,-6.739 0.136,-1.553 0.327,-2.071 0.504,-2.369 0.177,-0.3 0.476,-0.531 0.966,-0.586 0.491,-0.055 0.825,0.109 0.872,0.857 0.082,1.294 0.457,3.022 1.13,5.038 0.653,1.961 1.37,2.895 1.866,2.873 0.626,-0.027 0.53,-0.421 0.421,-0.925 C 5.748,-3.303 5.731,-3.524 6.223,-3.512 6.67,-3.503 7.115,-3.175 7.449,-2.274 7.857,-1.171 7.761,0.027 6.713,0.259 5.58,0.509 4.426,-0.109 3.649,-1.266 2.874,-2.424 2.056,-4.547 1.675,-6.781 1.336,-4.752 1.404,-2.056 1.022,-0.858 0.874,-0.395 0.668,0 0,0" style="fill:#0094d9;fill-opacity:1;fill-rule:nonzero;stroke:none" id="path168"/>
        </g>
        <g id="g170" transform="translate(432.0461,225.5973)">
          <path d="m 0,0 c -0.913,0.073 -1.273,-0.426 -1.253,-1.473 0.024,-1.363 0.145,-4.967 0.912,-7.012 0.428,-1.142 1.159,-1.327 1.851,-1.157 0.596,0.146 0.422,0.573 0.183,0.913 C 1.315,-8.193 1.108,-7.265 0.973,-5.43 0.829,-3.409 0.901,-1.814 0.926,-1.156 0.95,-0.499 0.753,-0.06 0,0" style="fill:#0094d9;fill-opacity:1;fill-rule:nonzero;stroke:none" id="path172"/>
        </g>
        <g id="g174" transform="translate(431.0454,229.7639)">
          <path d="M 0,0 C -0.15,-0.655 0.569,-0.867 1.137,-0.825 1.678,-0.784 2.168,-0.607 2.22,-0.264 2.269,0.08 1.805,0.561 1.132,0.606 0.353,0.656 0.078,0.341 0,0" style="fill:#0094d9;fill-opacity:1;fill-rule:nonzero;stroke:none" id="path176"/>
        </g>
        <g id="g178" transform="translate(437.9288,228.4694)">
          <path d="m 0,0 c -2.082,-0.081 -3.013,-1.072 -3.013,-2.244 0,-1.173 0.911,-2.325 2.811,-4.062 1.9,-1.739 3.335,-2.831 3.194,-4.327 -0.141,-1.497 -1.838,-3.315 -3.396,-3.315 -0.93,0 -1.395,0.727 -1.678,1.152 -0.283,0.424 -0.829,0.283 -0.809,-0.262 0.031,-0.83 0.405,-1.315 0.789,-1.719 0.488,-0.515 1.547,-0.811 3.032,-0.263 1.314,0.485 3.881,2.345 3.881,4.73 0,1.416 -0.95,2.548 -2.83,4.286 -0.978,0.906 -2.302,2.139 -2.77,2.83 -0.464,0.687 -0.293,1.405 0.345,1.598 0.869,0.262 1.859,-0.021 2.142,-0.951 0.186,-0.611 0.496,-0.828 1.153,-0.687 0.566,0.121 0.963,0.903 0.485,1.799 C 2.851,-0.525 1.784,0.07 0,0" style="fill:#0094d9;fill-opacity:1;fill-rule:nonzero;stroke:none" id="path180"/>
        </g>
        <g id="g182" transform="translate(445.476,231.9867)">
          <path d="M 0,0 C 0.754,0 1.268,-0.75 1.104,-1.617 0.565,-4.473 0.153,-8.449 0.586,-12.7 c 1.866,4.21 3.017,5.845 4.535,5.665 1.711,-0.204 2.985,-3.894 2.202,-10.807 -0.069,-0.608 -0.358,-0.944 -0.847,-0.944 -0.377,0 -0.769,0.239 -0.745,0.97 0.114,3.511 0.184,5.569 -0.453,7.839 -0.301,1.078 -0.906,0.989 -1.451,0.253 -0.714,-0.967 -1.597,-2.625 -2.561,-4.884 -0.321,-0.755 -0.806,-0.8 -1.105,-0.782 -0.459,0.027 -0.808,0.269 -0.97,1.212 -0.224,1.308 -0.577,8.181 0,12.803 C -0.702,-0.512 -0.567,0 0,0" style="fill:#0094d9;fill-opacity:1;fill-rule:nonzero;stroke:none" id="path184"/>
        </g>
        <g id="g186" transform="translate(456.0944,225.1482)">
          <path d="m 0,0 c -0.712,0.092 -1.011,-0.248 -1.082,-1.334 -0.182,-2.899 0.185,-7.088 0.646,-8.628 0.367,-1.23 1.124,-1.348 1.61,-1.196 0.368,0.114 0.46,0.413 0.277,0.828 C 0.802,-8.871 0.829,-5.453 1.082,-1.565 1.155,-0.454 0.507,-0.065 0,0" style="fill:#0094d9;fill-opacity:1;fill-rule:nonzero;stroke:none" id="path188"/>
        </g>
        <g id="g190" transform="translate(457.5451,229.6116)">
          <path d="M 0,0 C -0.894,0.288 -1.264,-0.045 -1.358,-0.436 -1.468,-0.9 -1.036,-1.311 -0.461,-1.45 0.115,-1.587 0.782,-1.564 0.921,-1.173 1.058,-0.782 0.644,-0.206 0,0" style="fill:#0094d9;fill-opacity:1;fill-rule:nonzero;stroke:none" id="path192"/>
        </g>
        <g id="g194" transform="translate(460.9853,224.4161)">
          <path d="m 0,0 c -0.765,0.227 -1.118,0.059 -1.197,-0.71 -0.189,-1.847 -0.048,-4.657 0.225,-6.301 0.117,-0.706 0.374,-1.01 0.972,-1.384 0.598,-0.372 1.448,-0.474 1.888,0.038 0.567,0.66 2.167,3.991 3.705,6.217 0.432,0.626 0.851,0.573 0.894,-0.103 0.15,-2.377 0.071,-4.659 -0.131,-7.385 -0.091,-1.226 0.485,-1.645 0.748,-1.795 0.262,-0.149 0.598,-0.223 0.859,0.02 0.263,0.242 0.431,0.392 0.169,0.765 -0.262,0.374 -0.28,1.74 -0.225,2.824 0.056,1.084 0.456,4.015 0.456,5.716 0,1.697 -0.007,2.641 -1.072,2.733 -1.066,0.094 -1.75,-0.498 -2.688,-1.68 -1.031,-1.3 -2.761,-4.448 -3.518,-5.196 -0.276,-0.273 -0.343,-0.211 -0.394,0.09 -0.156,0.918 -0.206,4.132 0,5.029 C 0.897,-0.225 0.505,-0.149 0,0" style="fill:#0094d9;fill-opacity:1;fill-rule:nonzero;stroke:none" id="path196"/>
        </g>
        <g id="g198" transform="translate(478.8228,224.7705)">
          <path d="m 0,0 c 0,-0.708 -0.358,-0.467 -1.293,-0.763 -2.256,-0.715 -5.559,-3.159 -4.346,-5.828 1.106,-2.434 2.627,-1.39 4.042,0.243 0.789,0.91 1.132,1.294 1.274,1.536 0.141,0.243 0.223,0.564 0.201,0.87 -0.04,0.565 0.117,1.036 0.749,1.014 0.727,-0.024 1.193,-0.206 1.253,-0.994 0.062,-0.789 0.243,-2.607 0.465,-5.397 0.223,-2.791 1.719,-10.007 -1.394,-11.887 -1.286,-0.776 -2.548,-0.478 -2.851,-0.093 -0.303,0.384 -0.146,0.808 0.344,0.679 0.93,-0.242 1.741,0.117 2.264,1.395 0.584,1.424 0.646,2.991 0.445,5.215 -0.202,2.224 -0.621,6.011 -0.789,7.561 -1.172,-1.799 -2.345,-2.729 -4.204,-2.729 -2.405,0 -3.817,1.84 -3.817,3.779 0,1.942 2.685,5.216 5.15,5.763 C -0.668,0.77 0,0.262 0,0" style="fill:#0094d9;fill-opacity:1;fill-rule:nonzero;stroke:none" id="path200"/>
        </g>
        <g id="g202" transform="translate(489.3622,231.7749)">
          <path d="m 0,0 c -0.079,0.827 0.241,1.307 0.861,1.307 0.619,0 1.151,-0.429 1.204,-1.101 0.378,-4.784 0.595,-7.572 1.318,-11.254 1.295,2.22 3.221,4.356 5.857,4.78 0.533,0.087 1.839,-0.169 2.236,-0.545 1.015,-0.962 1.118,-3.689 0.164,-5.932 -0.749,-1.762 -1.914,-3.43 -3.844,-3.7 -0.941,-0.131 -1.294,0.208 -1.506,0.595 -0.23,0.42 -0.02,0.728 0.351,0.572 0.538,-0.227 1.191,-0.285 1.914,0.351 1.314,1.153 2.259,3.987 1.613,6.668 C 9.997,-7.541 9.565,-7.5 8.727,-7.874 8.004,-8.196 5.122,-9.687 3.872,-13.954 3.66,-14.68 3.322,-14.99 2.661,-14.99 c -0.66,0 -0.888,0.498 -0.768,1.105 0.122,0.606 -0.059,2.076 -0.261,3.383 C 1.43,-9.195 0.317,-3.305 0,0" style="fill:#0094d9;fill-opacity:1;fill-rule:nonzero;stroke:none" id="path204"/>
        </g>
        <g id="g206" transform="translate(503.8953,223.4965)">
          <path d="m 0,0 c -0.735,0.172 -0.855,-0.749 -0.773,-1.86 0.081,-1.113 0.707,-4.103 1.091,-4.831 0.384,-0.728 0.633,-0.938 1.395,-1.254 0.478,-0.198 1.448,-0.434 2.183,0.546 0.705,0.941 2.061,3.069 3.014,5.256 -0.738,-3.674 -1.372,-6.159 -1.779,-8.227 -0.421,-2.14 -0.602,-4.168 -0.184,-7.601 0.101,-0.828 0.121,-1.031 0.04,-1.456 -0.081,-0.424 0.263,-0.647 0.647,-0.747 0.385,-0.101 0.606,-0.036 0.79,0.768 0.099,0.444 -0.15,1.165 -0.286,2.426 -0.139,1.313 -0.466,2.985 0.245,6.307 0.746,3.496 2.142,7.378 2.303,9.825 C 8.848,1.597 8.262,1.739 7.697,1.799 7.129,1.86 6.746,1.556 6.383,0.04 5.554,-2.163 4.361,-4.155 3.349,-5.61 2.406,-6.968 1.804,-6.905 1.47,-5.439 1.167,-4.104 0.904,-2.365 0.843,-1.415 0.783,-0.466 0.438,-0.103 0,0" style="fill:#0094d9;fill-opacity:1;fill-rule:nonzero;stroke:none" id="path208"/>
        </g>
        <g id="g210" transform="translate(521.3795,225.3142)">
          <path d="m 0,0 c 0.777,-0.187 0.83,-0.962 0.773,-2.156 -0.017,-1.601 0.118,-3.769 0.316,-5.26 1.401,2.876 3.37,6.203 4.25,7.129 0.342,0.36 0.79,0.504 1.725,0.251 1.33,-0.359 1.618,-0.629 1.671,-1.348 0.073,-0.973 0.125,-3.774 0.252,-5.841 0.126,-2.068 0.306,-3.109 0.504,-4.278 0.172,-1.02 -0.056,-1.354 -0.845,-1.168 -0.873,0.206 -1.112,0.33 -1.197,1.456 -0.09,1.204 -0.285,7.142 -0.72,9.221 -0.132,0.636 -0.295,0.646 -0.762,0.053 -0.467,-0.593 -2.612,-3.157 -4.079,-7.98 -0.127,-0.413 -0.61,-0.751 -1.384,-0.413 -0.701,0.304 -0.737,0.377 -0.953,1.348 -0.137,0.617 -0.506,5.036 -0.413,7.64 C -0.826,-0.339 -0.59,0.143 0,0" style="fill:#0094d9;fill-opacity:1;fill-rule:nonzero;stroke:none" id="path212"/>
        </g>
        <g id="g214" transform="translate(538.6644,224.1945)">
          <path d="m 0,0 c -3.444,-1.334 -5.872,-4.464 -5.218,-5.673 0.546,-1.008 4.22,0.681 5.605,1.929 0,1.234 -0.049,2.276 0.863,2.107 0.912,-0.169 0.946,-0.473 1.115,-0.794 -0.068,-1.52 0.101,-5.843 0.692,-7.7 -0.017,-0.895 -0.888,-1.21 -1.452,-0.185 -0.642,1.165 -0.898,3.469 -1.033,4.744 -2.382,-1.622 -5.554,-2.854 -6.888,-1.284 -1.334,1.571 -0.726,3.885 1.487,5.978 2.211,2.094 3.613,2.213 4.255,2.162 C 0.067,1.234 0.609,0.727 0,0" style="fill:#0094d9;fill-opacity:1;fill-rule:nonzero;stroke:none" id="path216"/>
        </g>
        <g id="g218" transform="translate(544.4819,232.3625)">
          <path d="m 0,0 c -0.701,0.136 -1.276,-0.147 -1.214,-1.545 0.064,-1.399 1.045,-12.819 1.381,-15.049 0.167,-1.106 0.459,-2.045 1.126,-2.045 0.836,0 1.9,1.377 1.9,3.318 0,1.304 -1.001,0.647 -1.419,0.354 C 1.19,-11.042 0.898,-5.094 0.898,-2.735 0.898,-0.522 0.751,-0.147 0,0" style="fill:#0094d9;fill-opacity:1;fill-rule:nonzero;stroke:none" id="path220"/>
        </g>
        <g id="g222" transform="translate(542.1857,227.2071)">
          <path d="m 0,0 c -0.943,0.026 -1.168,-0.46 -0.96,-1.004 0.209,-0.54 0.96,-0.791 1.837,-0.749 0.877,0.041 2.713,0.312 4.195,0.666 1.482,0.356 3.444,0.607 4.32,0.732 0.877,0.126 1.394,0.415 1.086,0.792 C 10.289,0.667 9.977,0.938 9.748,1.106 7.327,0.918 4.801,0.667 2.714,0.335 1.789,0.185 0.731,-0.021 0,0" style="fill:#0094d9;fill-opacity:1;fill-rule:nonzero;stroke:none" id="path224"/>
        </g>
        <g id="g226" transform="translate(550.1937,224.7275)">
          <path d="m 0,0 c -1.156,0 -1.153,-0.601 -1.103,-1.504 0.051,-0.903 0.632,-4.737 1.862,-6.644 1.229,-1.905 2.993,-1.816 4.227,-0.35 0.621,0.739 1.224,1.651 1.652,2.576 0.226,-1.98 0.535,-3.409 0.963,-4.135 0.426,-0.728 1.402,-0.616 1.554,0.401 0.076,0.501 -0.301,0.852 -0.426,1.028 C 8.277,-6.095 8.077,-4.69 8.428,-1.404 8.596,0.162 8.353,0.569 7.834,0.691 7.016,0.883 6.809,-0.128 6.719,-1.797 5.87,-4.95 4.739,-6.649 3.707,-7.608 3.086,-8.186 2.551,-8.236 2.071,-7.245 1.592,-6.257 1.201,-4.126 0.979,-2.282 0.776,-0.604 0.853,0 0,0" style="fill:#0094d9;fill-opacity:1;fill-rule:nonzero;stroke:none" id="path228"/>
        </g>
        <g id="g230" transform="translate(563.2975,215.016)">
          <path d="m 0,0 c -1.079,3.508 -1.527,7.594 -1.579,10.087 -0.008,0.44 0.294,0.668 0.652,0.684 0.357,0.016 0.764,-0.016 0.91,-0.635 0.147,-0.618 0.407,-2.132 0.586,-3.27 0.7,1.887 1.644,3.889 4.1,4.035 1.166,0.07 1.79,-0.272 1.79,-1.823 C 6.459,7.647 5.922,6.28 4.735,6.507 4.371,6.578 4.384,6.891 4.49,7.192 4.588,7.468 5.06,9.224 4.197,9.387 3.336,9.55 2.017,7.728 1.481,4.815 1.342,3.682 1.331,2.963 1.644,0.601 1.808,-0.647 1.703,-0.801 1.09,-0.764 0.602,-0.737 0.185,-0.6 0,0" style="fill:#0094d9;fill-opacity:1;fill-rule:nonzero;stroke:none" id="path232"/>
        </g>
        <g id="g234" transform="translate(578.4173,224.2072)">
          <path d="m 0,0 c -1.777,1.433 -4.247,0.397 -6.075,-1.412 -2.074,-2.053 -2.416,-4.662 -1.282,-6.48 1.278,-2.051 4.301,-2.568 6.779,-1.667 0.471,0.17 0.958,1.035 0.812,1.326 -0.192,0.384 -0.627,0.22 -1.133,0.043 -2.454,-0.86 -4.614,-0.057 -5.117,1.657 -0.544,1.848 0.049,2.863 1.271,4.174 0.793,0.853 2.852,2.166 3.568,1.503 0.578,-0.534 0.043,-1.838 -1.584,-2.652 -1.624,-0.813 -3.592,-1.39 -5.773,-0.79 -0.726,-0.3 -0.514,-0.771 -0.256,-1.22 0.256,-0.449 1.626,-0.79 3.72,-0.513 2.267,0.3 5.133,1.818 5.732,3.337 C 1.129,-1.514 0.706,-0.57 0,0" style="fill:#0094d9;fill-opacity:1;fill-rule:nonzero;stroke:none" id="path236"/>
        </g>
      </g>
    </g>
  </g>
</svg>
